<svg xmlns="http://www.w3.org/2000/svg" viewBox="0 0 762 762" fill="none" shape-rendering="auto" width="512" height="512"><metadata xmlns:rdf="http://www.w3.org/1999/02/22-rdf-syntax-ns#" xmlns:xsi="http://www.w3.org/2001/XMLSchema-instance" xmlns:dc="http://purl.org/dc/elements/1.1/" xmlns:dcterms="http://purl.org/dc/terms/"><rdf:RDF><rdf:Description><dc:title>Adventurer</dc:title><dc:creator>Lisa Wischofsky</dc:creator><dc:source xsi:type="dcterms:URI">https://www.figma.com/community/file/1184595184137881796</dc:source><dcterms:license xsi:type="dcterms:URI">https://creativecommons.org/licenses/by/4.0/</dcterms:license><dc:rights>Remix of „Adventurer” (https://www.figma.com/community/file/1184595184137881796) by „Lisa Wischofsky”, licensed under „CC BY 4.0” (https://creativecommons.org/licenses/by/4.0/)</dc:rights></rdf:Description></rdf:RDF></metadata><mask id="viewboxMask"><rect width="762" height="762" rx="0" ry="0" x="0" y="0" fill="#fff" /></mask><g mask="url(#viewboxMask)"><path d="M396 164.8a224.8 224.8 0 0 1 104.8 42.4c6.2 4.9 12.5 9.4 18 15a225.4 225.4 0 0 1 71.8 149 58.5 58.5 0 0 1 50.9 42.2 71 71 0 0 1-27.6 76.5c-11 7.7-24.5 12-38 11.7-5 0-10-1.6-15-1.8-1.9 2.2-3.3 4.9-4.8 7.3A223.3 223.3 0 0 1 389 609.8c-11 .7-21.9 2-33 .7a223.7 223.7 0 0 1-178.8-342.3A223.4 223.4 0 0 1 352 163.5c14.6-1.4 29.4-.3 44 1.3Z" fill="#000"/><path fill-rule="evenodd" clip-rule="evenodd" d="M498.8 213.2A216 216 0 0 0 363 169c-13-.2-26.2 1.6-39 4a218 218 0 0 0-113.6 365.5 218.5 218.5 0 0 0 260.4 40.2c35-18.8 64.2-47.3 84.4-81.5l-3-1.6c-2.8-1.4-5.7-3-8-5-2.2-2-.3-5.8 2.7-4.7 1.5.7 3 1.6 4.4 2.4a55 55 0 0 0 59.6-3.6 64.5 64.5 0 0 0 25-69.8 53.1 53.1 0 0 0-24-31 52.6 52.6 0 0 0-47-2.8c-1.6.8-3.4 1.5-5 1.3-2.5-.2-2.8-4.2-.6-5.2 8-4 16.5-5.6 25.4-6.4a217 217 0 0 0-72-146.4c-4.4-4-8.7-8.1-13.9-11.3Zm107.6 196.2c2-1.2 1.3-5.1-1.4-5-2 0-4.2.8-6.2 1.6l-1.4.4a95.1 95.1 0 0 0-25.5 12.4c-2.2 2-2.2 4.4.1 6.2a92 92 0 0 0 5.2 2.8 36 36 0 0 1 13 9.2c-.2 1.9-2 3.4-3.4 4.5l-.2.2c-3.9 3-8.8 5-13.6 7-2.5 1-4.9 2-7.1 3.1-1.7.8-2.6 2.2-1.6 3.9 1 2 3.2 1.1 5 .5l.6-.2 5.4-2.3c5.4-2.3 11-4.5 15.4-8 2.7-2.1 5.1-5.1 5.4-8.7-.5-3.4-2.7-5.7-5.3-7.8a83 83 0 0 0-11.6-7.2l-1.1-.6c5.4-3 10.8-5.6 16.6-7.7l5-1.7a52 52 0 0 0 6.7-2.6Z" fill="#f2d3b1"/><g transform="translate(-161 -83)"><path d="M506 461.1c5.5-1.1 11.7 2.5 17 4 22.1 7 45.9 9.5 69 7.7 6.2-.6 12.8-2.4 19-2 6.2.7 10.4 6.1 11 12a65.6 65.6 0 0 1-35.5 64.6 65.4 65.4 0 0 1-92.4-76.2c1.4-5.3 6.8-9 12-10ZM428.2 466.8c3.7 2.2 5.9 6.6 7.8 10.2a55.3 55.3 0 0 1-40.8 79.1 55 55 0 0 1-62.5-45c-.5-3.8-1.5-7.7.2-11.2 1.6-4.2 5.7-7.1 10.1-7.6a123.8 123.8 0 0 0 65.1-24.1 16.5 16.5 0 0 1 20.1-1.4Z" fill="#000"/><path d="M513.4 467.6c12.2 5 25.5 8 38.6 9.8 15.6 2 31.4 2.6 47 .3 3.9-.6 8.1-1.8 12-1.6 2.4.1 4.4 2.7 4.8 5a59.2 59.2 0 0 1-37 63.5 59.6 59.6 0 0 1-79.4-70.2c1.6-6.2 8-10 14-6.8ZM427.8 474.2c4.8 7 7.5 15.3 8.4 23.8a49.8 49.8 0 0 1-50.2 53.2 49.2 49.2 0 0 1-48.2-46.2c-.5-3.2 2.1-6.5 5.2-7 3.3-.6 6.7-.8 10-1.2 18.4-2.2 36.5-9.6 52.1-19.7 3.1-1.9 5.9-4.3 9-6.1 4.4-2.3 11-1.2 13.7 3.2Z" fill="#fff"/><path d="M533.5 497a22.1 22.1 0 0 1 24.1 21c.9 11-7.5 21.2-18.4 22.8-12 2.2-24-6.8-25.4-18.8-2-12.3 7.5-24 19.7-25ZM400.5 505.5c6-1.3 12.6.9 17 5a19.5 19.5 0 1 1-17-5Z" fill="#000"/></g><g transform="translate(-161 -83)"><path d="M545 378.5c24.7 1 48 9 69.5 21 2.2 1.3 4.9 2.5 6.8 4.3 1.3 2.4-.4 5.1-3.2 4.2a234.2 234.2 0 0 0-51-12c-20.4-2.4-40-3.7-60.3-.1-3.2.4-6.9 2.1-10 1.6-2.7-1.7-1.3-6.1 1.2-7.4a78.6 78.6 0 0 1 47-11.6ZM408 397c3.5.6 6.6 1.8 9.6 3.7a54 54 0 0 0-.3 3.6c-2.7.8-5.5 1.1-8.2 1.4a152 152 0 0 0-38.9 9.7 140.6 140.6 0 0 0-35.1 18.7c-2.9 2-4.2 4.8-8.1 4.4l-1.5-2.6c.9-1.6 1.6-3.2 2.7-4.7a90 90 0 0 1 38.6-29.3c12.7-5.2 27.6-8 41.2-5Z" fill="#000"/></g><g transform="translate(-161 -83)"><path d="M524.2 555.8c.5 6.9-.8 13.4-1.6 20.2-2.7 24.2-9.3 48-19.1 70.2-3.7 7.4-6.8 15.8-14 20.4-4.2 3-10.3 1.7-14.6-.6-9.4-4.6-15.1-12.2-21.7-20.1a199 199 0 0 1-26-44c-3.6-8.2-7-16.6-10.3-24.8-.9-2.1-1.2-4 1-5.4 4.8 0 9.4 1.5 14.1 1.5 9.3.2 18.7.4 28-.8 20-2.3 39.6-8.3 58-16.5 2.1-1 4-.6 6.2-.1Z" fill="#000"/><path d="M519 562c-2 15.1-4 30.2-8 45a209.4 209.4 0 0 1-19.1 49c-2.2 3.4-5.3 7.3-10 6.4-7.3-1.5-14-8-18.6-13.7a169 169 0 0 1-24.6-36.4c-6.1-11-10.6-22.9-15.7-34.5l14.4 1.2c1.1 6 4.6 11.5 8.5 16 5 6 12.2 9.9 20 10 6.3-.4 12.2-3 16.8-7.3 8-7.4 12-17 14.4-27.4A265 265 0 0 0 519 562Z" fill="#8F2E45"/><path d="M490.6 572.1c-2.5 8.8-7 18.4-14.9 23.6a17.7 17.7 0 0 1-18.6 1.1c-7-3.8-10.9-10.5-13.9-17.6 16.1-.4 32-2.3 47.4-7Z" fill="#fff"/></g><g transform="translate(-161 -83)"></g><g transform="translate(-161 -83)"></g><g transform="translate(-161 -83)"><path fill-rule="evenodd" clip-rule="evenodd" d="M692.5 249.5a208.4 208.4 0 0 0-52-34 95.6 95.6 0 0 0-56-4.8A255 255 0 0 0 546 221l-1.9.7a192 192 0 0 0-20.5 8.5c-1.2.5-2.3 1-3.7 1-4.7-.2-9.5-1.2-14.2-2.1l-2.3-.5a876.7 876.7 0 0 0-31.8-4.8c-7.4-1-14.8-2-22.2-3.2-7.4-.8-15-1-22.3 0-10 1.8-19.8 5.2-29 9.5a437.1 437.1 0 0 0-50.6 27.4 324.7 324.7 0 0 0-43 33 225.3 225.3 0 0 0-32.1 35.9c-13.1 17.9-23.2 40.1-24.2 62.5a175.4 175.4 0 0 0 5.6 54c2.4 10 4.5 20.1 6.5 30.2l2.1 10 2.3 11.5a135.4 135.4 0 0 1 3.3 40.3 193.3 193.3 0 0 1-20 58c-3.7 7.7-7.4 15-11.2 22.4a517 517 0 0 0-18.8 39.7c-7.4 19-12.2 38.5-12 58.9a116 116 0 0 0 8.2 41.7 69 69 0 0 0 14.4 21.6 203.5 203.5 0 0 0 35.4 27c13.6 9.3 27.5 19 36.7 33a57 57 0 0 1 11 32.7 33.3 33.3 0 0 1-8.8 21c-1 1-2 2.1-2.8 3.3-1 2-.2 3.4.9 5 0 .2 0 .3.2.4 2.2 0 4.4-.1 6.5-1a123.6 123.6 0 0 0 64.6-50.3 83.4 83.4 0 0 0 13.8-42c10.9 14 26.7 22.1 43.8 25.6 16.8 3.6 33 3 50 2.2 16.5-1.7 32.7-5.5 47.8-12.4 10.2-4.4 19.4-10 28.8-15.8l6.4-4 8.8-5.5c5.3-3.3 10.5-6.6 16-9.7a343 343 0 0 1 33-16.8 263 263 0 0 1 71.2-20.3 196 196 0 0 1 29-2c24.9-.3 50.2 3.8 72.9 14.3 13.9 6.5 27 15 39.5 23.6 2 2 7.1.4 6.8-2.6-.9-2.3-2-4.4-3.2-6.5-1.6-3-3.2-6-4-9.5a48.8 48.8 0 0 1-1.8-13c.9-14.4 3.8-28.5 8.4-42.2 2.3-7.6 5.3-14.9 8.2-22.2 2.6-6.2 5-12.4 7.2-18.7 6.9-19.4 10-40.4 8-60.9-1.1-15-6-29.8-12.8-43.2-3.9-7.8-8.3-15.3-12.8-22.9-4.5-7.6-9-15.2-13-23.1a91.4 91.4 0 0 1-7.9-22.6c-3.5-16.7-5.2-33.9-7-51-1-10.8-2.1-21.5-3.6-32a151.5 151.5 0 0 0-10.5-41.4c-6-14.1-13.6-27.6-21.4-40.8-6.3-9.3-13.7-18-21-26.5l-2-2.4c-13.5-15.7-29.7-29.7-45.7-43.4l-12.8-11.2Zm-122 164.9c-35.9-28-65.4-66.5-78.6-110.4-3 .3-5.9.6-8.7 1.4-27.7 6.4-55 15.7-80.5 28.3a243.8 243.8 0 0 0-78.5 61.5c-1 1.3-2 2.7-2.5 4.3A218.2 218.2 0 0 0 717 579c.9-1.7 2.2-2.4 3.8-3.2 11.9 4.1 24.8 4 36.6-.3a64.6 64.6 0 0 0 41.8-60.5 55.5 55.5 0 0 0-17-41.2 51.4 51.4 0 0 0-30.2-13.6c-9.9-.8-19.7.8-28.6 5-.4 10.6-6 20.1-11.3 28.9-6.2 10-12.9 20.5-22.6 27.4-2 1.7-5.5.3-4.8-2.5 4.4-17.9 1.2-38.3-2.7-56-1.4-.7-3-.9-4.8-1l-3-.5a235.9 235.9 0 0 1-103.6-47.1Z" fill="#000"/><g fill="#0e0e0e"><path fill-rule="evenodd" clip-rule="evenodd" d="M628 217.3a87.7 87.7 0 0 0-31-2.8 269 269 0 0 0-61.8 16.8c-4.9 1.7-9.6 4.1-14.2 6.5-3.7 1.9-7.3 3.7-11 5.3-2.9 1-4.7-.8-3.5-3.6a27.8 27.8 0 0 1 6-3.6c-13-2.5-26.4-4.3-39.7-6L459 228c-11.1-2-23-3.4-34.2-1a123 123 0 0 0-22.3 7.6 423.4 423.4 0 0 0-50.7 27.2 313.8 313.8 0 0 0-41 31c-10.1 8.6-19.1 18.3-27.3 28.8a137.5 137.5 0 0 0-24.7 43.2 107.7 107.7 0 0 0-5 38.2c.5 15 3.7 29.3 7 43.8 1.4 6.5 2.9 13 4.1 19.7 1.4 5.7 2.5 11.5 3.6 17.3l3 15c2.9 13.3 3.9 26.7 1.5 40.2-3 21-12 41-21.3 59.8-3.2 6.8-6.7 13.6-10.1 20.3-5.1 10-10.2 19.9-14.6 30a181.2 181.2 0 0 0-12.8 39.8A124.8 124.8 0 0 0 216 743a67.7 67.7 0 0 0 17.2 30.6c9.7 9.4 20.5 16.8 31.8 24.1l3 2c13.4 9.5 27 19 36.4 32.7a62 62 0 0 1 13 37.5c0 7.9-2.8 15.1-7 21.7a118 118 0 0 0 58.1-48 76.2 76.2 0 0 0 11.9-40.7v-5.3l1.2-.4c1-.4 2.2-1 3.4-.6 1.2 1 2 2 3 3.3l.4.5a64.5 64.5 0 0 0 15.8 15.3c13.9 8.7 29.6 11.9 45.7 13 21.1 1 41.8-.4 62-7 13-4.5 25.3-10.5 37-18a752 752 0 0 0 16.6-10.3c10-6.2 19.7-12.4 30.2-17.8 22-11.7 45.3-20.9 69.4-27 35.5-8.3 74-10.1 109.3 0a200 200 0 0 1 56.5 28.1 55.7 55.7 0 0 1-4.5-33.8c1.2-10.4 3.6-20.6 6.8-30.5 2.7-8.9 6-17.2 9.3-25.5 4.8-11.8 9.4-23.5 12.2-36.5 4.6-21.1 4.4-43.4-2.6-64-4.6-14-12.3-27-20-39.9a362 362 0 0 1-12.6-22.4c-4.3-8.3-7.3-17-9-26.2a505 505 0 0 1-6.8-50.5c-1.5-15-3-29.9-5.7-44.5-2.6-14-7.6-27.4-14.1-40a436 436 0 0 0-16.8-30.1c-4.4-6-9.3-11.8-14.2-17.4l-3.4-4A320 320 0 0 0 712 274l-8.5-7.4c-10.4-9-20.8-18.1-32-26.3-13-9.7-27.8-18.8-43.5-23Zm-57.4 197c-36-28-65.5-66.4-78.7-110.3-3 .3-5.9.6-8.7 1.4-27.7 6.4-55 15.7-80.5 28.3a243.8 243.8 0 0 0-78.5 61.5c-1 1.3-2 2.7-2.5 4.3A218.2 218.2 0 0 0 717 579c.9-1.7 2.2-2.4 3.8-3.2 11.9 4.1 24.8 4 36.6-.3a64.6 64.6 0 0 0 41.8-60.5 55.5 55.5 0 0 0-17-41.2 51.4 51.4 0 0 0-30.2-13.6c-9.9-.8-19.7.8-28.6 5-.4 10.6-6 20.1-11.3 28.9-6.2 10-12.9 20.5-22.6 27.4-2 1.7-5.5.3-4.8-2.5 4.4-17.9 1.2-38.3-2.7-56-1.4-.7-3-.9-4.8-1l-3-.5a235.9 235.9 0 0 1-103.6-47.1Zm-77.4-131.9c-.3-2.2-.6-4.4-1.2-6.5-.5-1.9-2.2-1.7-3.7-1.6l-.8.1c-1 2.8-.6 5.3-.2 8l.2 1.6c.8 5 1.8 9.8 3 14.7A305.3 305.3 0 0 0 445 310c-35.4 11.8-70.7 29-98.5 54.3a258.7 258.7 0 0 0-50 59.1A146 146 0 0 0 285 446c-1.1 3.3 1.6 5 4.4 3.3 1-1.3 1.6-2.8 2.3-4.3l.7-1.6c5.2-11.5 12-22.2 19.5-32.3a227.2 227.2 0 0 0 3.5 128.7A224.7 224.7 0 0 0 489 690.4c12.2 2.3 24.6 3 37 3.6 5 .1 10-.3 14.9-.6l7-.5a224.8 224.8 0 0 0 173.8-110.3c2 .2 4 .5 5.9.9A65 65 0 0 0 781 568a71.2 71.2 0 0 0 21.4-71.6 58.4 58.4 0 0 0-31.7-37.2 60 60 0 0 0-42.4-2.3c-3.8.1-7.6.4-11.4.7-6.3.5-12.6 1-19 .5-24.3-.9-48.2-7.2-70.5-16.7a246.9 246.9 0 0 1-92.3-69.6 192.4 192.4 0 0 1-41.3-84.7l-.7-4.8Zm77.4 132c-36-28-65.5-66.5-78.7-110.4-3 .3-5.9.6-8.7 1.4-27.7 6.4-55 15.7-80.5 28.3a243.8 243.8 0 0 0-78.5 61.5c-1 1.3-2 2.7-2.5 4.3A218.2 218.2 0 0 0 717 579c.9-1.7 2.2-2.4 3.8-3.2 11.9 4.1 24.8 4 36.6-.3a64.6 64.6 0 0 0 41.8-60.5 55.5 55.5 0 0 0-17-41.2 51.4 51.4 0 0 0-30.2-13.6c-9.9-.8-19.7.8-28.6 5-.4 10.6-6 20.1-11.3 28.9-6.2 10-12.9 20.5-22.6 27.4-2 1.7-5.5.3-4.8-2.5 4.4-17.9 1.2-38.3-2.7-56-1.4-.7-3-.9-4.8-1l-3-.5a235.9 235.9 0 0 1-103.6-47.1Z"/><path d="M718.1 463.6c-.1 2.6-.2 5-1 7.6-2.6 9-7.9 17-13 25a126 126 0 0 1-12 15.7c1.4-16.5-1-32.4-4.5-48.6 10.2 1 20.3.9 30.5.3Z"/></g></g><g transform="translate(-161 -83)"></g></g></svg>