<svg xmlns="http://www.w3.org/2000/svg" viewBox="0 0 762 762" fill="none" shape-rendering="auto" width="512" height="512"><metadata xmlns:rdf="http://www.w3.org/1999/02/22-rdf-syntax-ns#" xmlns:xsi="http://www.w3.org/2001/XMLSchema-instance" xmlns:dc="http://purl.org/dc/elements/1.1/" xmlns:dcterms="http://purl.org/dc/terms/"><rdf:RDF><rdf:Description><dc:title>Adventurer</dc:title><dc:creator>Lisa Wischofsky</dc:creator><dc:source xsi:type="dcterms:URI">https://www.figma.com/community/file/1184595184137881796</dc:source><dcterms:license xsi:type="dcterms:URI">https://creativecommons.org/licenses/by/4.0/</dcterms:license><dc:rights>Remix of „Adventurer” (https://www.figma.com/community/file/1184595184137881796) by „Lisa Wischofsky”, licensed under „CC BY 4.0” (https://creativecommons.org/licenses/by/4.0/)</dc:rights></rdf:Description></rdf:RDF></metadata><mask id="viewboxMask"><rect width="762" height="762" rx="0" ry="0" x="0" y="0" fill="#fff" /></mask><g mask="url(#viewboxMask)"><path d="M396 164.8a224.8 224.8 0 0 1 104.8 42.4c6.2 4.9 12.5 9.4 18 15a225.4 225.4 0 0 1 71.8 149 58.5 58.5 0 0 1 50.9 42.2 71 71 0 0 1-27.6 76.5c-11 7.7-24.5 12-38 11.7-5 0-10-1.6-15-1.8-1.9 2.2-3.3 4.9-4.8 7.3A223.3 223.3 0 0 1 389 609.8c-11 .7-21.9 2-33 .7a223.7 223.7 0 0 1-178.8-342.3A223.4 223.4 0 0 1 352 163.5c14.6-1.4 29.4-.3 44 1.3Z" fill="#000"/><path fill-rule="evenodd" clip-rule="evenodd" d="M498.8 213.2A216 216 0 0 0 363 169c-13-.2-26.2 1.6-39 4a218 218 0 0 0-113.6 365.5 218.5 218.5 0 0 0 260.4 40.2c35-18.8 64.2-47.3 84.4-81.5l-3-1.6c-2.8-1.4-5.7-3-8-5-2.2-2-.3-5.8 2.7-4.7 1.5.7 3 1.6 4.4 2.4a55 55 0 0 0 59.6-3.6 64.5 64.5 0 0 0 25-69.8 53.1 53.1 0 0 0-24-31 52.6 52.6 0 0 0-47-2.8c-1.6.8-3.4 1.5-5 1.3-2.5-.2-2.8-4.2-.6-5.2 8-4 16.5-5.6 25.4-6.4a217 217 0 0 0-72-146.4c-4.4-4-8.7-8.1-13.9-11.3Zm107.6 196.2c2-1.2 1.3-5.1-1.4-5-2 0-4.2.8-6.2 1.6l-1.4.4a95.1 95.1 0 0 0-25.5 12.4c-2.2 2-2.2 4.4.1 6.2a92 92 0 0 0 5.2 2.8 36 36 0 0 1 13 9.2c-.2 1.9-2 3.4-3.4 4.5l-.2.2c-3.9 3-8.8 5-13.6 7-2.5 1-4.9 2-7.1 3.1-1.7.8-2.6 2.2-1.6 3.9 1 2 3.2 1.1 5 .5l.6-.2 5.4-2.3c5.4-2.3 11-4.5 15.4-8 2.7-2.1 5.1-5.1 5.4-8.7-.5-3.4-2.7-5.7-5.3-7.8a83 83 0 0 0-11.6-7.2l-1.1-.6c5.4-3 10.8-5.6 16.6-7.7l5-1.7a52 52 0 0 0 6.7-2.6Z" fill="#f2d3b1"/><g transform="translate(-161 -83)"><path d="M556 424a65.3 65.3 0 0 1 65.5 73.8c-.4 2.7-3.2 3.6-5.5 3.8-23 1-45.4 3.7-68 6.3-13.2 1-26.2 2.8-39.2 4.6-4.6.5-8.6 1.7-13.1 0A65 65 0 0 1 556 424Z" fill="#000"/><path d="M566.2 430.5a60 60 0 0 1 50.2 60.5c-.2 1.4.1 3.5-.7 4.6-4.2.7-8.5.7-12.7 1.1-18.4 1.2-36.6 3.4-54.9 5.6a31 31 0 0 0 2.6-10.3 24.8 24.8 0 0 0-39.5-20.8 24.4 24.4 0 0 0-9.8 20.8c0 6 2.6 11.2 6.4 15.7l-7.3.8a59.2 59.2 0 0 1 65.7-78Z" fill="#fff"/><path d="M416 455a55 55 0 0 1 23.8 62c-4 1.1-7.7.7-11.8.7-25.4-.3-50.6-.3-76 1.4-5.6-.3-13 1.8-17.8-1.4a55.2 55.2 0 0 1 81.7-62.7Z" fill="#000"/><path d="M410.4 458.5c19 10.1 29.7 32.9 24.7 53.9l-5.7.1a24.4 24.4 0 0 0 2.8-15.5 22.4 22.4 0 0 0-15.4-17.7 22 22 0 0 0-28.5 20.7c-.3 4.4 1 8.2 2.8 12.1-15.4.1-30.7 1-46.1 2-1.8-.2-5.8.5-6.1-2a49 49 0 0 1 71.6-53.6Z" fill="#fff"/></g><g transform="translate(-161 -83)"><path d="M607 397.6c1.5-.4 3.2.6 4.7 1 0 1.2-.1 2.4-.4 3.6-1.6 1.5-3.6 2.6-5.4 3.8a803.6 803.6 0 0 1-70.4 40.6A289.9 289.9 0 0 1 500 462a50 50 0 0 1-21 3.5c-3.3-.4-6.2-3-6.2-6.5 0-4.2 3-8.6 5-12.1 1.3-2.7 4.5-3 7-4.1l111.7-41.5c3.5-1.2 7-2.8 10.5-3.7ZM339 432.6l90 18c2.3.4 4.6.1 6.9.5 2.4 2.3 3.6 6.2 4.5 9.4 1.2 4-.1 8.8-4 11-4 2.6-9.8 2.1-14.4 1.9-8.8-1-17.4-3.8-25.7-6.8a418 418 0 0 1-57-27c-1.6-.9-3.6-1.9-4.8-3.5-.3-2.9 1.9-4.1 4.5-3.5Z" fill="#000"/></g><g transform="translate(-161 -83)"><path d="M517.9 557.8c1.5.3 2.8 1.6 2.7 3.2-7 16.8-15 33.2-25.1 48.4-4.7 7-9.2 14.2-14.5 20.6-2.1 3.3-8 3-10.8.8-6.9-5-13.3-10.7-19-16.9-9.3-10.4-18-20.1-24.8-32.4-.8-1.9-2.3-4-.8-5.9.6-1.2 3-.8 3.6.2 5.1 9.2 11.4 17.7 18.5 25.5a154 154 0 0 0 22.7 22.3c1.2.8 2.4 1.7 3.8 2 2.6.4 3.8-1.2 5.3-3.1 13.5-19 25.7-38.8 34.6-60.4.9-2 1.5-3.7 3.8-4.3Z" fill="#000"/></g><g transform="translate(-161 -83)"></g><g transform="translate(-161 -83)"><path d="M569 416.3c10.7-.3 21.4 0 32-.2 14-.7 28-.4 42-.6 3.9.2 9-.1 12.2 2.4 2.4 1.6 2.2 5.5 2.4 8-.1 4.4-.3 9.5-2.4 13.4-5 2-11.4 1.2-16.8 1.9.4 12.3 1.7 24.6 1.3 36.8-.7 14-3.7 28-10.3 40.4-8.1 13-20 24.3-33.6 31.5a77 77 0 0 1-33.3 7.7c-6.3.2-12.1.5-18.3-.8-9.4-2-18.8-4.4-27-10A81.6 81.6 0 0 1 492 516a193.1 193.1 0 0 1-13.3-43.9c-.5-2.3-2.4-3.5-4.3-4.4-6.7-3-15-.6-18.8 5.6-.8 2.4-1 5-1.2 7.6-.6 7.6-2.2 15.3-3.9 22.8-3.1 13.6-9 26.3-16.8 37.8a50.8 50.8 0 0 1-16.2 14.8 75.6 75.6 0 0 1-34.4 10.3c-7.2-.2-14.2-.4-21.1-2.5-5.5-1.3-10.5-4.8-15.2-8a57.7 57.7 0 0 1-15.3-16.7c-5.3-8.3-9.3-17.3-12.2-26.7a97.5 97.5 0 0 1-5.2-28.7c-4.6.7-9.4 2.2-14 2-4.4-.9-5.3-7.6-5.5-11.1.1-2.4-.1-6.8 2.7-7.7 21.6-9.8 44.4-17 67.5-22.4 17-3.7 34.8-8.3 52.3-6.7 11.2 1 22.8 4 31.7 11 3.2 2.5 5.5 7 9.4 7.7 7 1.8 14.5-1.3 20.9-4 3.6-10 10-17.3 19-22.8a89.3 89.3 0 0 1 20.8-8.3c16.7-4 33.1-4.6 50.2-5.5Z" fill="#000"/><path d="M307.1 478.2c1.2-1.2 3.4 0 2.4 1.6-1.2 1.2-3.4 0-2.4-1.6Z" fill="#000"/><ellipse cx="605" cy="457.5" rx="14" ry="10.5" fill="#fff"/><ellipse cx="411" cy="476.1" rx="11" ry="8.1" fill="#fff"/></g><g transform="translate(-161 -83)"><path d="M564 200c8 2.4 15.1 7 20.8 13.2 6.5 6.9 12.1 14.6 16.8 22.8 7-5.5 15-9.8 23.4-13 5.4-2 12.4-3.3 17.9-1 4.6 2 6.7 7.2 6.2 12-.7 7-4.6 13.7-8.3 19.5 8.9-1.8 18.2-4 27.2-4.6 5.7-.3 11.3-.6 17-.6 12.9.2 27.1 1.2 39 6.7 4.2 2 9.4 5 11.6 9.4 1.8 4.5-.2 8.6-3.2 12a88.4 88.4 0 0 1-19.6 15.2 123.7 123.7 0 0 1 41.1 21.5c4.6 4 9 9.5 8.7 16-.5 6.2-4.4 10.7-9.4 14A88.2 88.2 0 0 1 778 372c4 7.8 6.7 17 3.4 25.6-2.6 7-8 11.5-14.5 15a59.2 59.2 0 0 1 11 36.4c-.3 6-2 11.8-6 16.4-3.1-.2-6.2-2-9.2-3a58 58 0 0 0-46.2 6c-4.6 2.8-9.1 5.6-13.8 8.3 3.3-.3 7.1-.9 10.4-.1 2.6 3.1.3 5.4-1.2 8.3-2.2 3.5-3.9 7.4-6.4 10.6-1.7 2.4-5.9.4-5-2.5 1.4-3.7 3.9-7 5.8-10.5-6.6 0-12.5 2.8-19 2 .1-1.5.3-3 .6-4.4 2-2.3 5-4 7.5-5.7 6.6-4.5 13.5-8.4 20.4-12.5-7-.5-13.8-.2-20.6-.6-2.4 0-3.5-1.3-4-3.4-.8-4.5.4-9.6.2-14-.7-2.6-2.5-5-3.9-7.4A185 185 0 0 1 668 386c-5.1.2-9.9.5-14.9-1a40.3 40.3 0 0 1-14.3-7.8 57.5 57.5 0 0 1-14.5-23.2 29.5 29.5 0 0 1-17.2 9c-4.8.1-8-3.4-9.4-7.7-2-6.7-.4-14.8 1.2-21.4a262 262 0 0 1-80.8 20c-11.2.7-22.5.1-33.7-.2 1.7 3.3 3.4 6.3 3.2 10.2 0 3.5-2.4 6.7-5.7 7.7-5.8 1.8-11.4 1-17.3 0a104.3 104.3 0 0 1-28.4-10c-.4 3.6-.4 7-2 10.3a25.8 25.8 0 0 1-8 9.2c-6.8 4.8-17 4.6-23.2-1a70.5 70.5 0 0 1-14.6-19.9 78.6 78.6 0 0 1-8.7 12.2 77.7 77.7 0 0 1-24.5 20.7 31.7 31.7 0 0 1-17.1 3.6c-4.4-.8-7.6-4.4-9.4-8.3a32 32 0 0 1-.2-23.3 120 120 0 0 1-31.4 4.5 24 24 0 0 1-13.5-3.2c-5-3.4-7.5-10.4-5.1-16.1 2.2-5.4 7.4-9.8 12.5-12.5 8.4-4.4 18.9-5 28.2-5a78.5 78.5 0 0 1-14.4-12.7c-3.4-4-6-9-6.5-14.2-.4-5 2.8-9.4 6.5-12.3 5.6-4.4 13-6.8 20-8 10.6-1.4 21.3-2.4 31.9-1.1a22 22 0 0 1-7.5-11.6c-.8-4-1-8.7 1.6-12.2 2.8-3.9 7.6-6.4 12-8.2 10-4 21.5-5.2 32.3-5.5 13.4-.7 26.6.1 40 .9-3.4-7-8.4-14-8.2-22 .1-6 4.2-10.7 9.7-12.6 8.4-2.8 17.8-3 26.5-2.2 13.9 2.1 27.6 5.5 41 9.4 8.3 2.5 16.4 5.4 24.6 8 .2-8.7 2.5-17.7 9.7-23.3a28.9 28.9 0 0 1 25.6-5.2ZM720 575.9c5.4 1 10.4 2.7 16 2.8 2.4.4 6-.4 7 2.4a23 23 0 0 1-1.8 11c-3.4 8.2-11.8 14-20.8 12.4-6-1.2-10-5.7-12.7-11 3.3-4.7 6.3-9.5 9.4-14.4.8-1 1.6-2.6 2.9-3.2Z" fill="#000"/><path d="M565.8 207.1c10.5 4.1 18.7 14.1 25 23.2 2.9 3.9 5 8.3 7.7 12.3 2.8.8 4.7-.7 6.8-2.3a74.5 74.5 0 0 1 17-9.9c5.4-2.3 10.6-4.3 16.7-3.3 3.2.8 4.5 3.8 4 7-1 7.3-5.9 13.3-9.5 19.4-1.4 2 0 5.4 2.5 5.6 5.1.5 10.7-1.2 15.8-2 7-1.6 14-2 21.2-2.7 13.8-.6 28.6-.2 42 3.6 5.3 1.7 11.8 4.4 15.2 9.1.3 2.4-2 5-3.5 6.6a95 95 0 0 1-21.2 15c-1.9 1.1-3.7 1.7-3.8 4.4.5 2.1 2.2 2.5 4 3.1 11 2.6 21.6 7.2 31.5 12.6 6.5 4 14.6 8.8 18.3 15.7 2.3 4.2.2 9-3.3 11.8-1.9 1.3-4 1.8-6 3-2 1.5-.7 4.3.7 5.8 5 4.4 10.3 8 14.6 13.4 6 7.2 12 15.4 14.4 24.5a18.8 18.8 0 0 1-2.4 16.5c-3.2 5-7.9 6.6-12.8 9.2-2.8 2.1-.7 4.8.7 7a51.5 51.5 0 0 1 10 37c-.3 2-1.4 4-2.2 5.7a59 59 0 0 0-37.8-2.1c-3.9 1.4-7.3-.2-11.4-.3-7.6-.2-15.3 0-23-.1-.3-5.5 2.1-12.9-1.3-17.5-10-16.6-18.1-35-22.6-53.9a43 43 0 0 0 22.3-19c.8-1.6.4-3.7.3-5.3-1.4 0-2.8 0-4.2.3-1.8 2.1-3.2 4.7-5 7-5 6.5-12.5 11-20.5 12.5a25.2 25.2 0 0 1-16.8-3 40 40 0 0 1-17.8-21.2c-1.7-3.7-1.8-7.6-2.9-11.3-1.9-1-3.8-1.2-5.2.7-3.4 4.6-7 8.6-12.4 10.8-2 1-5.3 2.1-6.7-.3-2.8-4.5-2-9.8-1.1-14.7.7-5 3-9.2 2.5-14.5-2.5-.2-4.8-.2-7.1 1a255.4 255.4 0 0 1-38.5 13.3 226 226 0 0 1-84 6.3c-2.7-.6-4.5 3.3-2.3 4.8 4 3.3 8.2 6.2 8.1 12-.2 2.5-3.8 2.8-5.8 3-14 .1-27.1-5.6-39.4-11.7-2.3-1-4.6-2.8-6.1.3-1 4 .4 9-1 13a18.1 18.1 0 0 1-11.7 10c-4.5 1.2-9-.9-12.2-4-5-5.1-9-11.5-12.3-17.8-1.1-1.9-2-4.1-3.4-5.8-1.3-.6-3.3-.4-3.9 1.1-2 4-3.7 8-6.5 11.5a84.8 84.8 0 0 1-26.3 23.8 26 26 0 0 1-14.5 3.4c-4.7-2-6-8-6.5-12.7-.2-5.8 1.8-12 5.2-16.7 1-1.5 1-2.3.3-4-2.3-1.2-4.4 0-6.6.7a90 90 0 0 1-33.1 5.7c-4 0-8.6 0-11.8-2.8-3.1-2.4-3.3-7.6-1-10.5 4.3-5.6 11-9 17.7-10.3 8.9-1.6 18.5-1.2 27.4-2-.2-1.7.6-4.2-1-5.2-5-3.5-10-6.5-14.4-10.8-5-4.8-10.2-9.6-10.6-17 .2-3.3 3.3-6.1 5.9-7.9 7.9-4.8 17.7-6.2 26.8-6.7 10-.9 20-.5 29.8 2 1.8.2 4 1.4 5.2-.5 1.7-1.7.8-3.7-1-5-3.9-2.9-9-5.3-12.7-9.2a16.8 16.8 0 0 1-4-9.8c.3-4.1 4.2-6.6 7.4-8.3a81.7 81.7 0 0 1 31.3-6.5c10-.2 20.2-.3 30.2.1 6.6.3 13.4 1.5 19.9.7-.2-4-2.4-6.6-4-10.1-2.4-5.1-5.8-10.3-6.3-16-.4-3 .6-6 3.4-7.7 3.7-2.1 8.6-2.7 12.8-3 5.8-.2 12-.4 17.8.7 12 2.3 24 5.1 35.7 8.6 9.9 3 19.6 6.7 29.6 9.5 2.6.2 3.1-2.9 2.6-5-1.7-8.4 1.9-18.4 9.6-22.8 6.6-4 14.5-4 21.5-1ZM721.7 582.6c5.3.7 10.5 1.7 15.8 2.2-1.2 7.1-5.9 13.6-13.5 14.1-4.3.4-6.4-2.4-9.3-5a732 732 0 0 0 7-11.3Z" fill="#0e0e0e"/></g><g transform="translate(-161 -83)"></g></g></svg>